<svg viewBox="0 0 196 42" xmlns="http://www.w3.org/2000/svg" data-logo="logo">
        <g transform="translate(0, 1) rotate(0)" id="logogram" style="opacity: 1;"><path fill="#E9327C" d="M28.7089 33.1053L1.9434 14.6424C-0.768963 12.7715 0.15306 8.87601 3.53531 7.95996L31.9823 0.239132C32.5849 0.0216955 33.2306 -0.0488885 33.866 0.0332432C34.5013 0.115375 35.1079 0.34785 35.6355 0.711378C36.1629 1.07491 36.5961 1.559 36.899 2.12348C37.2018 2.68795 37.3658 3.31654 37.3771 3.95706L35.6912 30.1393C35.4913 33.247 31.4213 34.9762 28.7089 33.1053Z"></path><path fill="#1DACE3" d="M20.2197 37.6632L4.45132 6.82618C4.09087 6.12072 3.93226 5.32941 3.99297 4.53953C4.05367 3.74965 4.33135 2.99187 4.79536 2.34978C5.25939 1.70769 5.89172 1.20622 6.62264 0.900668C7.35356 0.595117 8.15466 0.497365 8.93761 0.618198L38.1604 5.12834C38.8331 5.23219 39.4717 5.49425 40.0236 5.89298C40.5753 6.29172 41.0245 6.81572 41.3344 7.42191C41.6441 8.0281 41.8057 8.69917 41.8055 9.37994C41.8054 10.0607 41.6437 10.7317 41.3338 11.3378L27.8719 37.6647C27.5104 38.3681 26.962 38.9583 26.2869 39.3703C25.6118 39.7823 24.8363 40.0002 24.0454 40C23.2545 39.9999 22.479 39.7817 21.804 39.3695C21.1291 38.9571 20.5809 38.3668 20.2197 37.6632Z"></path><path fill="#001A49" d="M37.3055 4.9955L22.7382 2.74713L4.85269 7.60342L11.9917 21.5695L28.7089 33.1053C29.0777 33.357 29.4834 33.5497 29.9114 33.6767L36.2612 21.2592L37.3055 4.9955Z"></path></g>
        <g transform="translate(48, 7.5)" id="logotype" style="opacity: 1;"><path d="M13.52 27L8.31 27L8.31 1.54L18.24 1.54Q21.14 1.54 23.18 2.64Q25.21 3.74 26.28 5.68Q27.35 7.62 27.35 10.13L27.35 10.13Q27.35 12.66 26.26 14.58Q25.17 16.51 23.12 17.59Q21.06 18.68 18.12 18.68L18.12 18.68L11.73 18.68L11.73 14.47L17.28 14.47Q18.89 14.47 19.92 13.92Q20.95 13.36 21.46 12.39Q21.96 11.41 21.96 10.13L21.96 10.13Q21.96 8.85 21.46 7.88Q20.95 6.90 19.91 6.37Q18.87 5.84 17.26 5.84L17.26 5.84L13.52 5.84L13.52 27ZM33.72 27L28.59 27L28.59 7.89L33.72 7.89L33.72 27ZM31.15 5.40L31.15 5.40Q29.99 5.40 29.17 4.63Q28.35 3.86 28.35 2.77L28.35 2.77Q28.35 1.67 29.17 0.90Q29.99 0.13 31.15 0.13L31.15 0.13Q32.32 0.13 33.15 0.90Q33.97 1.66 33.97 2.77L33.97 2.77Q33.97 3.86 33.15 4.63Q32.32 5.40 31.15 5.40ZM39.77 27L34.33 27L41.73 15.19L41.71 19.19L34.71 7.89L40.24 7.89L41.97 10.92Q42.79 12.39 43.45 13.83Q44.11 15.28 44.79 16.64L44.79 16.64L42.84 16.64Q43.54 15.29 44.19 13.84Q44.84 12.39 45.70 10.92L45.70 10.92L47.49 7.89L52.92 7.89L45.78 19.24L45.78 15.29L53.20 27L47.70 27L45.58 23.39Q44.74 21.94 44.06 20.49Q43.39 19.04 42.69 17.70L42.69 17.70L44.65 17.70Q43.99 19.04 43.35 20.49Q42.70 21.94 41.88 23.39L41.88 23.39L39.77 27ZM57.79 27L52.36 27L59.76 15.19L59.74 19.19L52.73 7.89L58.27 7.89L60.00 10.92Q60.82 12.39 61.48 13.83Q62.13 15.28 62.82 16.64L62.82 16.64L60.87 16.64Q61.57 15.29 62.22 13.84Q62.87 12.39 63.72 10.92L63.72 10.92L65.52 7.89L70.95 7.89L63.81 19.24L63.81 15.29L71.23 27L65.72 27L63.60 23.39Q62.77 21.94 62.09 20.49Q61.42 19.04 60.72 17.70L60.72 17.70L62.68 17.70Q62.01 19.04 61.37 20.49Q60.73 21.94 59.91 23.39L59.91 23.39L57.79 27ZM80.49 27.38L80.49 27.38Q77.56 27.38 75.44 26.18Q73.33 24.98 72.19 22.78Q71.05 20.57 71.05 17.55L71.05 17.55Q71.05 14.59 72.18 12.37Q73.31 10.15 75.38 8.90Q77.44 7.65 80.23 7.65L80.23 7.65Q82.11 7.65 83.73 8.25Q85.36 8.85 86.59 10.06Q87.82 11.26 88.51 13.07Q89.20 14.88 89.20 17.34L89.20 17.34L89.20 18.78L73.15 18.78L73.15 15.57L86.69 15.57L84.30 16.42Q84.30 14.93 83.84 13.83Q83.39 12.73 82.49 12.12Q81.60 11.52 80.26 11.52L80.26 11.52Q78.95 11.52 78.02 12.13Q77.09 12.75 76.61 13.80Q76.13 14.85 76.13 16.20L76.13 16.20L76.13 18.47Q76.13 20.13 76.68 21.26Q77.24 22.39 78.24 22.95Q79.24 23.51 80.57 23.51L80.57 23.51Q81.48 23.51 82.21 23.26Q82.95 23.00 83.47 22.50Q83.99 21.99 84.26 21.26L84.26 21.26L88.91 22.13Q88.45 23.70 87.31 24.89Q86.16 26.08 84.44 26.73Q82.73 27.38 80.49 27.38ZM90.43 1.54L95.56 1.54L95.56 27L90.43 27L90.43 1.54ZM106.19 27.38L106.19 27.38Q103.31 27.38 101.21 26.14Q99.11 24.90 97.97 22.68Q96.84 20.47 96.84 17.53L96.84 17.53Q96.84 14.56 97.97 12.35Q99.11 10.13 101.21 8.89Q103.31 7.65 106.19 7.65L106.19 7.65Q109.07 7.65 111.17 8.89Q113.26 10.13 114.40 12.35Q115.53 14.56 115.53 17.53L115.53 17.53Q115.53 20.47 114.40 22.68Q113.26 24.90 111.17 26.14Q109.07 27.38 106.19 27.38ZM106.19 23.34L106.19 23.34Q107.55 23.34 108.48 22.58Q109.40 21.82 109.86 20.50Q110.32 19.17 110.32 17.52L110.32 17.52Q110.32 15.82 109.86 14.51Q109.40 13.19 108.48 12.44Q107.55 11.69 106.19 11.69L106.19 11.69Q104.82 11.69 103.90 12.44Q102.99 13.19 102.53 14.51Q102.07 15.82 102.07 17.52L102.07 17.52Q102.07 19.17 102.53 20.50Q102.99 21.82 103.90 22.58Q104.82 23.34 106.19 23.34ZM125.38 27.38L125.38 27.38Q122.50 27.38 120.40 26.14Q118.30 24.90 117.16 22.68Q116.03 20.47 116.03 17.53L116.03 17.53Q116.03 14.56 117.16 12.35Q118.30 10.13 120.40 8.89Q122.50 7.65 125.38 7.65L125.38 7.65Q128.26 7.65 130.36 8.89Q132.45 10.13 133.59 12.35Q134.72 14.56 134.72 17.53L134.72 17.53Q134.72 20.47 133.59 22.68Q132.45 24.90 130.36 26.14Q128.26 27.38 125.38 27.38ZM125.38 23.34L125.38 23.34Q126.74 23.34 127.67 22.58Q128.59 21.82 129.05 20.50Q129.51 19.17 129.51 17.52L129.51 17.52Q129.51 15.82 129.05 14.51Q128.59 13.19 127.67 12.44Q126.74 11.69 125.38 11.69L125.38 11.69Q124.01 11.69 123.09 12.44Q122.18 13.19 121.72 14.51Q121.26 15.82 121.26 17.52L121.26 17.52Q121.26 19.17 121.72 20.50Q122.18 21.82 123.09 22.58Q124.01 23.34 125.38 23.34ZM141.15 27L136.02 27L136.02 7.89L140.98 7.89L140.98 11.23L141.18 11.23Q141.71 9.45 142.95 8.54Q144.19 7.64 145.80 7.64L145.80 7.64Q146.19 7.64 146.64 7.68Q147.09 7.72 147.45 7.81L147.45 7.81L147.45 12.39Q147.11 12.27 146.46 12.20Q145.81 12.13 145.23 12.13L145.23 12.13Q144.07 12.13 143.13 12.64Q142.19 13.14 141.67 14.04Q141.15 14.93 141.15 16.13L141.15 16.13L141.15 27Z" fill="#ffffff"></path></g>
        
      </svg>